<mxfile host="www.draw.io" modified="2020-02-05T21:42:24.626Z" agent="Mozilla/5.0 (Windows NT 10.0; Win64; x64; rv:73.0) Gecko/20100101 Firefox/73.0" etag="lgO0y5MAXCNacyY2j7kx" version="12.6.5" type="github">
  <diagram id="C5RBs43oDa-KdzZeNtuy" name="Page-1">
    <mxGraphModel dx="1185" dy="659" grid="1" gridSize="10" guides="1" tooltips="1" connect="1" arrows="1" fold="1" page="1" pageScale="1" pageWidth="1169" pageHeight="827" math="0" shadow="0">
      <root>
        <mxCell id="WIyWlLk6GJQsqaUBKTNV-0"/>
        <mxCell id="WIyWlLk6GJQsqaUBKTNV-1" parent="WIyWlLk6GJQsqaUBKTNV-0"/>
        <mxCell id="rl5LN8OD0Tj5WLNeZwII-9" value="" style="edgeStyle=orthogonalEdgeStyle;rounded=0;orthogonalLoop=1;jettySize=auto;html=1;" edge="1" parent="WIyWlLk6GJQsqaUBKTNV-1" source="yoRVt4fO-FrMEHNvJ6Rw-4">
          <mxGeometry relative="1" as="geometry">
            <mxPoint x="500" y="120" as="targetPoint"/>
          </mxGeometry>
        </mxCell>
        <mxCell id="rl5LN8OD0Tj5WLNeZwII-11" value="" style="edgeStyle=orthogonalEdgeStyle;rounded=0;orthogonalLoop=1;jettySize=auto;html=1;" edge="1" parent="WIyWlLk6GJQsqaUBKTNV-1" source="rl5LN8OD0Tj5WLNeZwII-8">
          <mxGeometry relative="1" as="geometry">
            <mxPoint x="500" y="200" as="targetPoint"/>
          </mxGeometry>
        </mxCell>
        <mxCell id="rl5LN8OD0Tj5WLNeZwII-13" value="" style="edgeStyle=orthogonalEdgeStyle;rounded=0;orthogonalLoop=1;jettySize=auto;html=1;" edge="1" parent="WIyWlLk6GJQsqaUBKTNV-1" source="rl5LN8OD0Tj5WLNeZwII-10">
          <mxGeometry relative="1" as="geometry">
            <mxPoint x="500" y="280" as="targetPoint"/>
          </mxGeometry>
        </mxCell>
        <mxCell id="rl5LN8OD0Tj5WLNeZwII-15" value="" style="edgeStyle=orthogonalEdgeStyle;rounded=0;orthogonalLoop=1;jettySize=auto;html=1;" edge="1" parent="WIyWlLk6GJQsqaUBKTNV-1" source="rl5LN8OD0Tj5WLNeZwII-12">
          <mxGeometry relative="1" as="geometry">
            <mxPoint x="500" y="360" as="targetPoint"/>
          </mxGeometry>
        </mxCell>
        <mxCell id="yoRVt4fO-FrMEHNvJ6Rw-7" value="" style="edgeStyle=orthogonalEdgeStyle;rounded=0;orthogonalLoop=1;jettySize=auto;html=1;exitX=0.5;exitY=1;exitDx=0;exitDy=0;" parent="WIyWlLk6GJQsqaUBKTNV-1" source="yoRVt4fO-FrMEHNvJ6Rw-5" target="yoRVt4fO-FrMEHNvJ6Rw-6" edge="1">
          <mxGeometry relative="1" as="geometry">
            <mxPoint x="500" y="80" as="sourcePoint"/>
            <Array as="points">
              <mxPoint x="584" y="100"/>
              <mxPoint x="150" y="100"/>
            </Array>
          </mxGeometry>
        </mxCell>
        <mxCell id="yoRVt4fO-FrMEHNvJ6Rw-5" value="MY ACCOUNT" style="rounded=1;whiteSpace=wrap;html=1;fontSize=12;glass=0;strokeWidth=1;shadow=0;fillColor=#f8cecc;strokeColor=#b85450;" parent="WIyWlLk6GJQsqaUBKTNV-1" vertex="1">
          <mxGeometry x="524" y="40" width="120" height="40" as="geometry"/>
        </mxCell>
        <mxCell id="yoRVt4fO-FrMEHNvJ6Rw-9" value="" style="edgeStyle=orthogonalEdgeStyle;rounded=0;orthogonalLoop=1;jettySize=auto;html=1;exitX=0.5;exitY=1;exitDx=0;exitDy=0;" parent="WIyWlLk6GJQsqaUBKTNV-1" source="yoRVt4fO-FrMEHNvJ6Rw-5" target="yoRVt4fO-FrMEHNvJ6Rw-8" edge="1">
          <mxGeometry relative="1" as="geometry">
            <mxPoint x="720" y="250" as="sourcePoint"/>
          </mxGeometry>
        </mxCell>
        <mxCell id="rl5LN8OD0Tj5WLNeZwII-1" value="" style="edgeStyle=orthogonalEdgeStyle;rounded=0;orthogonalLoop=1;jettySize=auto;html=1;" edge="1" parent="WIyWlLk6GJQsqaUBKTNV-1" source="yoRVt4fO-FrMEHNvJ6Rw-6" target="rl5LN8OD0Tj5WLNeZwII-0">
          <mxGeometry relative="1" as="geometry"/>
        </mxCell>
        <mxCell id="yoRVt4fO-FrMEHNvJ6Rw-6" value="add recipe" style="rounded=1;whiteSpace=wrap;html=1;fontSize=12;glass=0;strokeWidth=1;shadow=0;fillColor=#fff2cc;strokeColor=#d6b656;" parent="WIyWlLk6GJQsqaUBKTNV-1" vertex="1">
          <mxGeometry x="80" y="120" width="120" height="40" as="geometry"/>
        </mxCell>
        <mxCell id="rl5LN8OD0Tj5WLNeZwII-174" value="" style="edgeStyle=orthogonalEdgeStyle;rounded=0;orthogonalLoop=1;jettySize=auto;html=1;strokeWidth=2;" edge="1" parent="WIyWlLk6GJQsqaUBKTNV-1" source="rl5LN8OD0Tj5WLNeZwII-0" target="rl5LN8OD0Tj5WLNeZwII-166">
          <mxGeometry relative="1" as="geometry">
            <Array as="points">
              <mxPoint x="140" y="230"/>
              <mxPoint x="140" y="230"/>
            </Array>
          </mxGeometry>
        </mxCell>
        <mxCell id="rl5LN8OD0Tj5WLNeZwII-0" value="&lt;div&gt;@app.route(&#39;/add_recipe&#39;)&lt;/div&gt;&lt;div&gt;GET&lt;br&gt;&lt;/div&gt;" style="rounded=1;whiteSpace=wrap;html=1;fontSize=12;glass=0;strokeWidth=1;shadow=0;fillColor=#ffe6cc;strokeColor=#d79b00;" vertex="1" parent="WIyWlLk6GJQsqaUBKTNV-1">
          <mxGeometry x="60" y="190" width="160" height="40" as="geometry"/>
        </mxCell>
        <mxCell id="yoRVt4fO-FrMEHNvJ6Rw-11" value="" style="edgeStyle=orthogonalEdgeStyle;rounded=0;orthogonalLoop=1;jettySize=auto;html=1;exitX=0.5;exitY=1;exitDx=0;exitDy=0;" parent="WIyWlLk6GJQsqaUBKTNV-1" source="yoRVt4fO-FrMEHNvJ6Rw-5" target="yoRVt4fO-FrMEHNvJ6Rw-10" edge="1">
          <mxGeometry relative="1" as="geometry"/>
        </mxCell>
        <mxCell id="rl5LN8OD0Tj5WLNeZwII-3" value="" style="edgeStyle=orthogonalEdgeStyle;rounded=0;orthogonalLoop=1;jettySize=auto;html=1;" edge="1" parent="WIyWlLk6GJQsqaUBKTNV-1" source="yoRVt4fO-FrMEHNvJ6Rw-8" target="rl5LN8OD0Tj5WLNeZwII-2">
          <mxGeometry relative="1" as="geometry"/>
        </mxCell>
        <mxCell id="yoRVt4fO-FrMEHNvJ6Rw-8" value="my recipes" style="rounded=1;whiteSpace=wrap;html=1;fontSize=12;glass=0;strokeWidth=1;shadow=0;fillColor=#fff2cc;strokeColor=#d6b656;" parent="WIyWlLk6GJQsqaUBKTNV-1" vertex="1">
          <mxGeometry x="400" y="120" width="120" height="40" as="geometry"/>
        </mxCell>
        <mxCell id="rl5LN8OD0Tj5WLNeZwII-68" value="" style="edgeStyle=orthogonalEdgeStyle;rounded=0;orthogonalLoop=1;jettySize=auto;html=1;entryX=0.5;entryY=0;entryDx=0;entryDy=0;" edge="1" parent="WIyWlLk6GJQsqaUBKTNV-1" source="rl5LN8OD0Tj5WLNeZwII-2" target="rl5LN8OD0Tj5WLNeZwII-64">
          <mxGeometry relative="1" as="geometry">
            <mxPoint x="424" y="280" as="targetPoint"/>
          </mxGeometry>
        </mxCell>
        <mxCell id="rl5LN8OD0Tj5WLNeZwII-2" value="@app.route(&#39;/my_recipe/&amp;lt;page&amp;gt;&#39;)" style="rounded=1;whiteSpace=wrap;html=1;fontSize=12;glass=0;strokeWidth=1;shadow=0;fillColor=#ffe6cc;strokeColor=#d79b00;" vertex="1" parent="WIyWlLk6GJQsqaUBKTNV-1">
          <mxGeometry x="360" y="200" width="200" height="40" as="geometry"/>
        </mxCell>
        <mxCell id="yoRVt4fO-FrMEHNvJ6Rw-13" value="" style="edgeStyle=orthogonalEdgeStyle;rounded=0;orthogonalLoop=1;jettySize=auto;html=1;exitX=0.5;exitY=1;exitDx=0;exitDy=0;" parent="WIyWlLk6GJQsqaUBKTNV-1" source="yoRVt4fO-FrMEHNvJ6Rw-5" target="yoRVt4fO-FrMEHNvJ6Rw-12" edge="1">
          <mxGeometry relative="1" as="geometry"/>
        </mxCell>
        <mxCell id="rl5LN8OD0Tj5WLNeZwII-7" value="" style="edgeStyle=orthogonalEdgeStyle;rounded=0;orthogonalLoop=1;jettySize=auto;html=1;exitX=0.5;exitY=1;exitDx=0;exitDy=0;" edge="1" parent="WIyWlLk6GJQsqaUBKTNV-1" source="yoRVt4fO-FrMEHNvJ6Rw-10" target="rl5LN8OD0Tj5WLNeZwII-6">
          <mxGeometry relative="1" as="geometry"/>
        </mxCell>
        <mxCell id="yoRVt4fO-FrMEHNvJ6Rw-10" value="my favorite recipes" style="rounded=1;whiteSpace=wrap;html=1;fontSize=12;glass=0;strokeWidth=1;shadow=0;fillColor=#fff2cc;strokeColor=#d6b656;" parent="WIyWlLk6GJQsqaUBKTNV-1" vertex="1">
          <mxGeometry x="680" y="120" width="120" height="40" as="geometry"/>
        </mxCell>
        <mxCell id="rl5LN8OD0Tj5WLNeZwII-6" value="@app.route(&#39;/my_favorite_recipe/&amp;lt;page&amp;gt;&#39;)" style="rounded=1;whiteSpace=wrap;html=1;fontSize=12;glass=0;strokeWidth=1;shadow=0;fillColor=#ffe6cc;strokeColor=#d79b00;" vertex="1" parent="WIyWlLk6GJQsqaUBKTNV-1">
          <mxGeometry x="620" y="200" width="240" height="40" as="geometry"/>
        </mxCell>
        <mxCell id="rl5LN8OD0Tj5WLNeZwII-5" value="" style="edgeStyle=orthogonalEdgeStyle;rounded=0;orthogonalLoop=1;jettySize=auto;html=1;" edge="1" parent="WIyWlLk6GJQsqaUBKTNV-1" source="yoRVt4fO-FrMEHNvJ6Rw-12" target="rl5LN8OD0Tj5WLNeZwII-4">
          <mxGeometry relative="1" as="geometry"/>
        </mxCell>
        <mxCell id="yoRVt4fO-FrMEHNvJ6Rw-12" value="logout" style="rounded=1;whiteSpace=wrap;html=1;fontSize=12;glass=0;strokeWidth=1;shadow=0;fillColor=#fff2cc;strokeColor=#d6b656;" parent="WIyWlLk6GJQsqaUBKTNV-1" vertex="1">
          <mxGeometry x="960" y="120" width="120" height="40" as="geometry"/>
        </mxCell>
        <mxCell id="rl5LN8OD0Tj5WLNeZwII-63" value="" style="edgeStyle=orthogonalEdgeStyle;rounded=0;orthogonalLoop=1;jettySize=auto;html=1;" edge="1" parent="WIyWlLk6GJQsqaUBKTNV-1" source="rl5LN8OD0Tj5WLNeZwII-4" target="rl5LN8OD0Tj5WLNeZwII-62">
          <mxGeometry relative="1" as="geometry"/>
        </mxCell>
        <mxCell id="rl5LN8OD0Tj5WLNeZwII-4" value="@app.route(&#39;/logout&#39;)" style="rounded=1;whiteSpace=wrap;html=1;fontSize=12;glass=0;strokeWidth=1;shadow=0;fillColor=#ffe6cc;strokeColor=#d79b00;" vertex="1" parent="WIyWlLk6GJQsqaUBKTNV-1">
          <mxGeometry x="940" y="200" width="160" height="40" as="geometry"/>
        </mxCell>
        <mxCell id="rl5LN8OD0Tj5WLNeZwII-56" value="" style="edgeStyle=orthogonalEdgeStyle;rounded=0;orthogonalLoop=1;jettySize=auto;html=1;" edge="1" parent="WIyWlLk6GJQsqaUBKTNV-1" source="rl5LN8OD0Tj5WLNeZwII-21" target="rl5LN8OD0Tj5WLNeZwII-55">
          <mxGeometry relative="1" as="geometry"/>
        </mxCell>
        <mxCell id="rl5LN8OD0Tj5WLNeZwII-21" value="add recipe button" style="shape=process;whiteSpace=wrap;html=1;backgroundOutline=1;size=0.19166666666666668;fillColor=#e1d5e7;strokeColor=#9673a6;" vertex="1" parent="WIyWlLk6GJQsqaUBKTNV-1">
          <mxGeometry x="80" y="1020" width="120" height="40" as="geometry"/>
        </mxCell>
        <mxCell id="rl5LN8OD0Tj5WLNeZwII-25" style="edgeStyle=orthogonalEdgeStyle;rounded=0;orthogonalLoop=1;jettySize=auto;html=1;exitX=0.5;exitY=1;exitDx=0;exitDy=0;" edge="1" parent="WIyWlLk6GJQsqaUBKTNV-1" source="rl5LN8OD0Tj5WLNeZwII-6" target="rl5LN8OD0Tj5WLNeZwII-6">
          <mxGeometry relative="1" as="geometry"/>
        </mxCell>
        <mxCell id="rl5LN8OD0Tj5WLNeZwII-123" value="" style="edgeStyle=orthogonalEdgeStyle;rounded=0;orthogonalLoop=1;jettySize=auto;html=1;strokeWidth=1;entryX=0.5;entryY=0;entryDx=0;entryDy=0;" edge="1" parent="WIyWlLk6GJQsqaUBKTNV-1" source="rl5LN8OD0Tj5WLNeZwII-26" target="rl5LN8OD0Tj5WLNeZwII-120">
          <mxGeometry relative="1" as="geometry">
            <mxPoint x="140" y="800" as="targetPoint"/>
          </mxGeometry>
        </mxCell>
        <mxCell id="rl5LN8OD0Tj5WLNeZwII-26" value="next ingredient button" style="shape=process;whiteSpace=wrap;html=1;backgroundOutline=1;size=0.19166666666666668;fillColor=#e1d5e7;strokeColor=#9673a6;" vertex="1" parent="WIyWlLk6GJQsqaUBKTNV-1">
          <mxGeometry x="65" y="690" width="150" height="40" as="geometry"/>
        </mxCell>
        <mxCell id="rl5LN8OD0Tj5WLNeZwII-29" value="custom.js" style="rounded=0;whiteSpace=wrap;html=1;" vertex="1" parent="WIyWlLk6GJQsqaUBKTNV-1">
          <mxGeometry x="304" y="760" width="76" height="40" as="geometry"/>
        </mxCell>
        <mxCell id="rl5LN8OD0Tj5WLNeZwII-128" value="" style="edgeStyle=orthogonalEdgeStyle;rounded=0;orthogonalLoop=1;jettySize=auto;html=1;strokeWidth=1;entryX=0.5;entryY=0;entryDx=0;entryDy=0;" edge="1" parent="WIyWlLk6GJQsqaUBKTNV-1" source="rl5LN8OD0Tj5WLNeZwII-31" target="rl5LN8OD0Tj5WLNeZwII-115">
          <mxGeometry relative="1" as="geometry">
            <mxPoint x="140" y="920" as="targetPoint"/>
          </mxGeometry>
        </mxCell>
        <mxCell id="rl5LN8OD0Tj5WLNeZwII-31" value="next step button" style="shape=process;whiteSpace=wrap;html=1;backgroundOutline=1;size=0.19166666666666668;fillColor=#e1d5e7;strokeColor=#9673a6;" vertex="1" parent="WIyWlLk6GJQsqaUBKTNV-1">
          <mxGeometry x="70" y="810" width="140" height="40" as="geometry"/>
        </mxCell>
        <mxCell id="rl5LN8OD0Tj5WLNeZwII-131" style="edgeStyle=orthogonalEdgeStyle;rounded=0;orthogonalLoop=1;jettySize=auto;html=1;strokeWidth=1;entryX=0;entryY=0.5;entryDx=0;entryDy=0;" edge="1" parent="WIyWlLk6GJQsqaUBKTNV-1" source="rl5LN8OD0Tj5WLNeZwII-49" target="rl5LN8OD0Tj5WLNeZwII-60">
          <mxGeometry relative="1" as="geometry">
            <mxPoint x="240" y="970" as="targetPoint"/>
          </mxGeometry>
        </mxCell>
        <mxCell id="rl5LN8OD0Tj5WLNeZwII-49" value="add to favorite" style="shape=process;whiteSpace=wrap;html=1;backgroundOutline=1;size=0.19166666666666668;fillColor=#e1d5e7;strokeColor=#9673a6;" vertex="1" parent="WIyWlLk6GJQsqaUBKTNV-1">
          <mxGeometry x="70" y="950" width="140" height="40" as="geometry"/>
        </mxCell>
        <mxCell id="rl5LN8OD0Tj5WLNeZwII-58" value="" style="edgeStyle=orthogonalEdgeStyle;rounded=0;orthogonalLoop=1;jettySize=auto;html=1;entryX=0;entryY=0.5;entryDx=0;entryDy=0;strokeWidth=2;" edge="1" parent="WIyWlLk6GJQsqaUBKTNV-1" source="rl5LN8OD0Tj5WLNeZwII-55" target="rl5LN8OD0Tj5WLNeZwII-0">
          <mxGeometry relative="1" as="geometry">
            <Array as="points">
              <mxPoint x="140" y="1160"/>
              <mxPoint x="20" y="1160"/>
              <mxPoint x="20" y="210"/>
            </Array>
          </mxGeometry>
        </mxCell>
        <mxCell id="rl5LN8OD0Tj5WLNeZwII-55" value="&lt;div&gt;@app.route(&#39;/insert_recipe&#39;)&lt;/div&gt;&lt;div&gt;POST&lt;br&gt;&lt;/div&gt;" style="rounded=1;whiteSpace=wrap;html=1;fontSize=12;glass=0;strokeWidth=1;shadow=0;fillColor=#ffe6cc;strokeColor=#d79b00;" vertex="1" parent="WIyWlLk6GJQsqaUBKTNV-1">
          <mxGeometry x="40" y="1100" width="200" height="40" as="geometry"/>
        </mxCell>
        <mxCell id="rl5LN8OD0Tj5WLNeZwII-61" value="" style="edgeStyle=orthogonalEdgeStyle;rounded=0;orthogonalLoop=1;jettySize=auto;html=1;exitX=0.5;exitY=1;exitDx=0;exitDy=0;" edge="1" parent="WIyWlLk6GJQsqaUBKTNV-1" source="rl5LN8OD0Tj5WLNeZwII-49" target="rl5LN8OD0Tj5WLNeZwII-21">
          <mxGeometry relative="1" as="geometry"/>
        </mxCell>
        <mxCell id="rl5LN8OD0Tj5WLNeZwII-60" value="@app.route(&#39;/recipe_favorite/&amp;lt;recipe_id&amp;gt;&#39;)" style="rounded=1;whiteSpace=wrap;html=1;fontSize=12;glass=0;strokeWidth=1;shadow=0;fillColor=#ffe6cc;strokeColor=#d79b00;" vertex="1" parent="WIyWlLk6GJQsqaUBKTNV-1">
          <mxGeometry x="250" y="950" width="200" height="40" as="geometry"/>
        </mxCell>
        <mxCell id="rl5LN8OD0Tj5WLNeZwII-62" value="&lt;div&gt;HOME &lt;br&gt;&lt;/div&gt;&lt;div&gt;(logged out)&lt;/div&gt;" style="rounded=1;whiteSpace=wrap;html=1;fontSize=12;glass=0;strokeWidth=1;shadow=0;fillColor=#f8cecc;strokeColor=#b85450;" vertex="1" parent="WIyWlLk6GJQsqaUBKTNV-1">
          <mxGeometry x="960" y="280" width="120" height="40" as="geometry"/>
        </mxCell>
        <mxCell id="rl5LN8OD0Tj5WLNeZwII-74" value="" style="edgeStyle=orthogonalEdgeStyle;rounded=0;orthogonalLoop=1;jettySize=auto;html=1;" edge="1" parent="WIyWlLk6GJQsqaUBKTNV-1" source="rl5LN8OD0Tj5WLNeZwII-64" target="rl5LN8OD0Tj5WLNeZwII-73">
          <mxGeometry relative="1" as="geometry"/>
        </mxCell>
        <mxCell id="rl5LN8OD0Tj5WLNeZwII-64" value="view recipe button" style="shape=process;whiteSpace=wrap;html=1;backgroundOutline=1;size=0.19166666666666668;fillColor=#e1d5e7;strokeColor=#9673a6;" vertex="1" parent="WIyWlLk6GJQsqaUBKTNV-1">
          <mxGeometry x="390" y="280" width="140" height="40" as="geometry"/>
        </mxCell>
        <mxCell id="rl5LN8OD0Tj5WLNeZwII-78" value="" style="edgeStyle=orthogonalEdgeStyle;rounded=0;orthogonalLoop=1;jettySize=auto;html=1;entryX=0.5;entryY=0;entryDx=0;entryDy=0;" edge="1" parent="WIyWlLk6GJQsqaUBKTNV-1" source="rl5LN8OD0Tj5WLNeZwII-73" target="rl5LN8OD0Tj5WLNeZwII-75">
          <mxGeometry relative="1" as="geometry"/>
        </mxCell>
        <mxCell id="rl5LN8OD0Tj5WLNeZwII-79" value="" style="edgeStyle=orthogonalEdgeStyle;rounded=0;orthogonalLoop=1;jettySize=auto;html=1;entryX=0.5;entryY=0;entryDx=0;entryDy=0;" edge="1" parent="WIyWlLk6GJQsqaUBKTNV-1" source="rl5LN8OD0Tj5WLNeZwII-73" target="rl5LN8OD0Tj5WLNeZwII-76">
          <mxGeometry relative="1" as="geometry">
            <Array as="points">
              <mxPoint x="460" y="410"/>
              <mxPoint x="608" y="410"/>
            </Array>
          </mxGeometry>
        </mxCell>
        <mxCell id="rl5LN8OD0Tj5WLNeZwII-86" value="" style="edgeStyle=orthogonalEdgeStyle;rounded=0;orthogonalLoop=1;jettySize=auto;html=1;strokeWidth=1;" edge="1" parent="WIyWlLk6GJQsqaUBKTNV-1" source="rl5LN8OD0Tj5WLNeZwII-73" target="rl5LN8OD0Tj5WLNeZwII-85">
          <mxGeometry relative="1" as="geometry"/>
        </mxCell>
        <mxCell id="rl5LN8OD0Tj5WLNeZwII-73" value="&lt;div&gt;@app.route(&#39;/recipe_page&#39;)&lt;/div&gt;&lt;div&gt;GET&lt;br&gt;&lt;/div&gt;" style="rounded=1;whiteSpace=wrap;html=1;fontSize=12;glass=0;strokeWidth=1;shadow=0;fillColor=#ffe6cc;strokeColor=#d79b00;" vertex="1" parent="WIyWlLk6GJQsqaUBKTNV-1">
          <mxGeometry x="380" y="350" width="160" height="40" as="geometry"/>
        </mxCell>
        <mxCell id="rl5LN8OD0Tj5WLNeZwII-82" value="" style="edgeStyle=orthogonalEdgeStyle;rounded=0;orthogonalLoop=1;jettySize=auto;html=1;" edge="1" parent="WIyWlLk6GJQsqaUBKTNV-1" source="rl5LN8OD0Tj5WLNeZwII-77" target="rl5LN8OD0Tj5WLNeZwII-81">
          <mxGeometry relative="1" as="geometry"/>
        </mxCell>
        <mxCell id="rl5LN8OD0Tj5WLNeZwII-77" value="&lt;div&gt;@app.route(&#39;/edit_page&#39;)&lt;/div&gt;&lt;div&gt;GET&lt;br&gt;&lt;/div&gt;" style="rounded=1;whiteSpace=wrap;html=1;fontSize=12;glass=0;strokeWidth=1;shadow=0;fillColor=#ffe6cc;strokeColor=#d79b00;" vertex="1" parent="WIyWlLk6GJQsqaUBKTNV-1">
          <mxGeometry x="302" y="500" width="160" height="40" as="geometry"/>
        </mxCell>
        <mxCell id="rl5LN8OD0Tj5WLNeZwII-80" value="" style="edgeStyle=orthogonalEdgeStyle;rounded=0;orthogonalLoop=1;jettySize=auto;html=1;" edge="1" parent="WIyWlLk6GJQsqaUBKTNV-1" source="rl5LN8OD0Tj5WLNeZwII-75" target="rl5LN8OD0Tj5WLNeZwII-77">
          <mxGeometry relative="1" as="geometry"/>
        </mxCell>
        <mxCell id="rl5LN8OD0Tj5WLNeZwII-75" value="edit recipe" style="shape=process;whiteSpace=wrap;html=1;backgroundOutline=1;size=0.19166666666666668;fillColor=#e1d5e7;strokeColor=#9673a6;" vertex="1" parent="WIyWlLk6GJQsqaUBKTNV-1">
          <mxGeometry x="344" y="430" width="76" height="40" as="geometry"/>
        </mxCell>
        <mxCell id="rl5LN8OD0Tj5WLNeZwII-76" value="delete recipe" style="shape=process;whiteSpace=wrap;html=1;backgroundOutline=1;size=0.19166666666666668;fillColor=#e1d5e7;strokeColor=#9673a6;" vertex="1" parent="WIyWlLk6GJQsqaUBKTNV-1">
          <mxGeometry x="570" y="430" width="76" height="40" as="geometry"/>
        </mxCell>
        <mxCell id="rl5LN8OD0Tj5WLNeZwII-84" value="" style="edgeStyle=orthogonalEdgeStyle;rounded=0;orthogonalLoop=1;jettySize=auto;html=1;entryX=0;entryY=0.5;entryDx=0;entryDy=0;strokeWidth=2;" edge="1" parent="WIyWlLk6GJQsqaUBKTNV-1" source="rl5LN8OD0Tj5WLNeZwII-81" target="rl5LN8OD0Tj5WLNeZwII-2">
          <mxGeometry relative="1" as="geometry">
            <mxPoint x="424" y="690" as="targetPoint"/>
            <Array as="points">
              <mxPoint x="380" y="630"/>
              <mxPoint x="290" y="630"/>
              <mxPoint x="290" y="220"/>
            </Array>
          </mxGeometry>
        </mxCell>
        <mxCell id="rl5LN8OD0Tj5WLNeZwII-81" value="update recipe button" style="shape=process;whiteSpace=wrap;html=1;backgroundOutline=1;size=0.19166666666666668;fillColor=#e1d5e7;strokeColor=#9673a6;" vertex="1" parent="WIyWlLk6GJQsqaUBKTNV-1">
          <mxGeometry x="318" y="570" width="128" height="40" as="geometry"/>
        </mxCell>
        <mxCell id="rl5LN8OD0Tj5WLNeZwII-89" value="" style="edgeStyle=orthogonalEdgeStyle;rounded=0;orthogonalLoop=1;jettySize=auto;html=1;strokeWidth=1;entryX=0.5;entryY=0;entryDx=0;entryDy=0;" edge="1" parent="WIyWlLk6GJQsqaUBKTNV-1" source="rl5LN8OD0Tj5WLNeZwII-85" target="rl5LN8OD0Tj5WLNeZwII-91">
          <mxGeometry relative="1" as="geometry">
            <mxPoint x="510" y="640" as="targetPoint"/>
            <Array as="points"/>
          </mxGeometry>
        </mxCell>
        <mxCell id="rl5LN8OD0Tj5WLNeZwII-85" value="add to favorite" style="shape=process;whiteSpace=wrap;html=1;backgroundOutline=1;size=0.19166666666666668;fillColor=#e1d5e7;strokeColor=#9673a6;" vertex="1" parent="WIyWlLk6GJQsqaUBKTNV-1">
          <mxGeometry x="454" y="430" width="76" height="40" as="geometry"/>
        </mxCell>
        <mxCell id="rl5LN8OD0Tj5WLNeZwII-91" value="@app.route(&#39;/recipe_favorite/&amp;lt;recipe_id&amp;gt;&#39;)" style="rounded=1;whiteSpace=wrap;html=1;fontSize=12;glass=0;strokeWidth=1;shadow=0;fillColor=#ffe6cc;strokeColor=#d79b00;" vertex="1" parent="WIyWlLk6GJQsqaUBKTNV-1">
          <mxGeometry x="392" y="640" width="200" height="40" as="geometry"/>
        </mxCell>
        <mxCell id="rl5LN8OD0Tj5WLNeZwII-94" value="" style="edgeStyle=orthogonalEdgeStyle;rounded=0;orthogonalLoop=1;jettySize=auto;html=1;strokeWidth=1;" edge="1" parent="WIyWlLk6GJQsqaUBKTNV-1" source="rl5LN8OD0Tj5WLNeZwII-92" target="rl5LN8OD0Tj5WLNeZwII-93">
          <mxGeometry relative="1" as="geometry"/>
        </mxCell>
        <mxCell id="rl5LN8OD0Tj5WLNeZwII-92" value="Recipe name" style="text;html=1;strokeColor=none;fillColor=none;align=center;verticalAlign=middle;whiteSpace=wrap;rounded=0;" vertex="1" parent="WIyWlLk6GJQsqaUBKTNV-1">
          <mxGeometry x="90" y="250" width="100" height="20" as="geometry"/>
        </mxCell>
        <mxCell id="rl5LN8OD0Tj5WLNeZwII-96" value="" style="edgeStyle=orthogonalEdgeStyle;rounded=0;orthogonalLoop=1;jettySize=auto;html=1;strokeWidth=1;" edge="1" parent="WIyWlLk6GJQsqaUBKTNV-1" source="rl5LN8OD0Tj5WLNeZwII-93" target="rl5LN8OD0Tj5WLNeZwII-95">
          <mxGeometry relative="1" as="geometry"/>
        </mxCell>
        <mxCell id="rl5LN8OD0Tj5WLNeZwII-93" value="Description" style="text;html=1;strokeColor=none;fillColor=none;align=center;verticalAlign=middle;whiteSpace=wrap;rounded=0;" vertex="1" parent="WIyWlLk6GJQsqaUBKTNV-1">
          <mxGeometry x="90" y="290" width="100" height="20" as="geometry"/>
        </mxCell>
        <mxCell id="rl5LN8OD0Tj5WLNeZwII-99" value="" style="edgeStyle=orthogonalEdgeStyle;rounded=0;orthogonalLoop=1;jettySize=auto;html=1;strokeWidth=1;" edge="1" parent="WIyWlLk6GJQsqaUBKTNV-1" source="rl5LN8OD0Tj5WLNeZwII-95" target="rl5LN8OD0Tj5WLNeZwII-98">
          <mxGeometry relative="1" as="geometry"/>
        </mxCell>
        <mxCell id="rl5LN8OD0Tj5WLNeZwII-95" value="Recipe category" style="text;html=1;strokeColor=none;fillColor=none;align=center;verticalAlign=middle;whiteSpace=wrap;rounded=0;" vertex="1" parent="WIyWlLk6GJQsqaUBKTNV-1">
          <mxGeometry x="90" y="330" width="100" height="20" as="geometry"/>
        </mxCell>
        <mxCell id="rl5LN8OD0Tj5WLNeZwII-101" value="" style="edgeStyle=orthogonalEdgeStyle;rounded=0;orthogonalLoop=1;jettySize=auto;html=1;strokeWidth=1;" edge="1" parent="WIyWlLk6GJQsqaUBKTNV-1" source="rl5LN8OD0Tj5WLNeZwII-98" target="rl5LN8OD0Tj5WLNeZwII-100">
          <mxGeometry relative="1" as="geometry"/>
        </mxCell>
        <mxCell id="rl5LN8OD0Tj5WLNeZwII-98" value="Allergens" style="text;html=1;strokeColor=none;fillColor=none;align=center;verticalAlign=middle;whiteSpace=wrap;rounded=0;" vertex="1" parent="WIyWlLk6GJQsqaUBKTNV-1">
          <mxGeometry x="90" y="370" width="100" height="20" as="geometry"/>
        </mxCell>
        <mxCell id="rl5LN8OD0Tj5WLNeZwII-103" value="" style="edgeStyle=orthogonalEdgeStyle;rounded=0;orthogonalLoop=1;jettySize=auto;html=1;strokeWidth=1;" edge="1" parent="WIyWlLk6GJQsqaUBKTNV-1" source="rl5LN8OD0Tj5WLNeZwII-100" target="rl5LN8OD0Tj5WLNeZwII-102">
          <mxGeometry relative="1" as="geometry"/>
        </mxCell>
        <mxCell id="rl5LN8OD0Tj5WLNeZwII-100" value="Preparation time" style="text;html=1;strokeColor=none;fillColor=none;align=center;verticalAlign=middle;whiteSpace=wrap;rounded=0;" vertex="1" parent="WIyWlLk6GJQsqaUBKTNV-1">
          <mxGeometry x="90" y="410" width="100" height="20" as="geometry"/>
        </mxCell>
        <mxCell id="rl5LN8OD0Tj5WLNeZwII-105" value="" style="edgeStyle=orthogonalEdgeStyle;rounded=0;orthogonalLoop=1;jettySize=auto;html=1;strokeWidth=1;" edge="1" parent="WIyWlLk6GJQsqaUBKTNV-1" source="rl5LN8OD0Tj5WLNeZwII-102" target="rl5LN8OD0Tj5WLNeZwII-104">
          <mxGeometry relative="1" as="geometry"/>
        </mxCell>
        <mxCell id="rl5LN8OD0Tj5WLNeZwII-102" value="Cooking time" style="text;html=1;strokeColor=none;fillColor=none;align=center;verticalAlign=middle;whiteSpace=wrap;rounded=0;" vertex="1" parent="WIyWlLk6GJQsqaUBKTNV-1">
          <mxGeometry x="90" y="450" width="100" height="20" as="geometry"/>
        </mxCell>
        <mxCell id="rl5LN8OD0Tj5WLNeZwII-108" value="" style="edgeStyle=orthogonalEdgeStyle;rounded=0;orthogonalLoop=1;jettySize=auto;html=1;strokeWidth=1;" edge="1" parent="WIyWlLk6GJQsqaUBKTNV-1" source="rl5LN8OD0Tj5WLNeZwII-104" target="rl5LN8OD0Tj5WLNeZwII-107">
          <mxGeometry relative="1" as="geometry"/>
        </mxCell>
        <mxCell id="rl5LN8OD0Tj5WLNeZwII-104" value="Servings" style="text;html=1;strokeColor=none;fillColor=none;align=center;verticalAlign=middle;whiteSpace=wrap;rounded=0;" vertex="1" parent="WIyWlLk6GJQsqaUBKTNV-1">
          <mxGeometry x="90" y="490" width="100" height="20" as="geometry"/>
        </mxCell>
        <mxCell id="rl5LN8OD0Tj5WLNeZwII-110" value="" style="edgeStyle=orthogonalEdgeStyle;rounded=0;orthogonalLoop=1;jettySize=auto;html=1;strokeWidth=1;" edge="1" parent="WIyWlLk6GJQsqaUBKTNV-1" source="rl5LN8OD0Tj5WLNeZwII-107" target="rl5LN8OD0Tj5WLNeZwII-109">
          <mxGeometry relative="1" as="geometry"/>
        </mxCell>
        <mxCell id="rl5LN8OD0Tj5WLNeZwII-107" value="Difficulty" style="text;html=1;strokeColor=none;fillColor=none;align=center;verticalAlign=middle;whiteSpace=wrap;rounded=0;" vertex="1" parent="WIyWlLk6GJQsqaUBKTNV-1">
          <mxGeometry x="90" y="530" width="100" height="20" as="geometry"/>
        </mxCell>
        <mxCell id="rl5LN8OD0Tj5WLNeZwII-112" value="" style="edgeStyle=orthogonalEdgeStyle;rounded=0;orthogonalLoop=1;jettySize=auto;html=1;strokeWidth=1;" edge="1" parent="WIyWlLk6GJQsqaUBKTNV-1" source="rl5LN8OD0Tj5WLNeZwII-109" target="rl5LN8OD0Tj5WLNeZwII-111">
          <mxGeometry relative="1" as="geometry"/>
        </mxCell>
        <mxCell id="rl5LN8OD0Tj5WLNeZwII-109" value="Image URL" style="text;html=1;strokeColor=none;fillColor=none;align=center;verticalAlign=middle;whiteSpace=wrap;rounded=0;" vertex="1" parent="WIyWlLk6GJQsqaUBKTNV-1">
          <mxGeometry x="90" y="570" width="100" height="20" as="geometry"/>
        </mxCell>
        <mxCell id="rl5LN8OD0Tj5WLNeZwII-114" value="" style="edgeStyle=orthogonalEdgeStyle;rounded=0;orthogonalLoop=1;jettySize=auto;html=1;strokeWidth=1;" edge="1" parent="WIyWlLk6GJQsqaUBKTNV-1" source="rl5LN8OD0Tj5WLNeZwII-111" target="rl5LN8OD0Tj5WLNeZwII-26">
          <mxGeometry relative="1" as="geometry"/>
        </mxCell>
        <mxCell id="rl5LN8OD0Tj5WLNeZwII-111" value="Recipe ingredients" style="text;html=1;strokeColor=none;fillColor=none;align=center;verticalAlign=middle;whiteSpace=wrap;rounded=0;" vertex="1" parent="WIyWlLk6GJQsqaUBKTNV-1">
          <mxGeometry x="90" y="620" width="100" height="40" as="geometry"/>
        </mxCell>
        <mxCell id="rl5LN8OD0Tj5WLNeZwII-126" value="" style="edgeStyle=orthogonalEdgeStyle;rounded=0;orthogonalLoop=1;jettySize=auto;html=1;strokeWidth=1;entryX=0.5;entryY=0;entryDx=0;entryDy=0;" edge="1" parent="WIyWlLk6GJQsqaUBKTNV-1" source="rl5LN8OD0Tj5WLNeZwII-120" target="rl5LN8OD0Tj5WLNeZwII-31">
          <mxGeometry relative="1" as="geometry">
            <mxPoint x="140" y="870" as="targetPoint"/>
          </mxGeometry>
        </mxCell>
        <mxCell id="rl5LN8OD0Tj5WLNeZwII-120" value="Recipe method" style="text;html=1;strokeColor=none;fillColor=none;align=center;verticalAlign=middle;whiteSpace=wrap;rounded=0;" vertex="1" parent="WIyWlLk6GJQsqaUBKTNV-1">
          <mxGeometry x="90" y="750" width="100" height="40" as="geometry"/>
        </mxCell>
        <mxCell id="rl5LN8OD0Tj5WLNeZwII-130" value="" style="edgeStyle=orthogonalEdgeStyle;rounded=0;orthogonalLoop=1;jettySize=auto;html=1;strokeWidth=1;entryX=0.5;entryY=0;entryDx=0;entryDy=0;" edge="1" parent="WIyWlLk6GJQsqaUBKTNV-1" source="rl5LN8OD0Tj5WLNeZwII-115" target="rl5LN8OD0Tj5WLNeZwII-49">
          <mxGeometry relative="1" as="geometry">
            <mxPoint x="140" y="1000" as="targetPoint"/>
          </mxGeometry>
        </mxCell>
        <mxCell id="rl5LN8OD0Tj5WLNeZwII-115" value="tags" style="shape=process;whiteSpace=wrap;html=1;backgroundOutline=1;size=0.19166666666666668;fillColor=#e1d5e7;strokeColor=#9673a6;" vertex="1" parent="WIyWlLk6GJQsqaUBKTNV-1">
          <mxGeometry x="70" y="880" width="140" height="40" as="geometry"/>
        </mxCell>
        <mxCell id="rl5LN8OD0Tj5WLNeZwII-168" value="" style="edgeStyle=orthogonalEdgeStyle;rounded=0;orthogonalLoop=1;jettySize=auto;html=1;strokeWidth=2;entryX=0;entryY=0.5;entryDx=0;entryDy=0;" edge="1" parent="WIyWlLk6GJQsqaUBKTNV-1" source="rl5LN8OD0Tj5WLNeZwII-166" target="rl5LN8OD0Tj5WLNeZwII-29">
          <mxGeometry relative="1" as="geometry">
            <mxPoint x="310" y="900" as="targetPoint"/>
          </mxGeometry>
        </mxCell>
        <mxCell id="rl5LN8OD0Tj5WLNeZwII-166" value="" style="rounded=0;whiteSpace=wrap;html=1;opacity=20;perimeterSpacing=2;gradientColor=none;fillColor=#000000;glass=0;labelBorderColor=#000000;labelBackgroundColor=#FF3333;gradientDirection=east;" vertex="1" parent="WIyWlLk6GJQsqaUBKTNV-1">
          <mxGeometry x="50" y="250" width="190" height="690" as="geometry"/>
        </mxCell>
      </root>
    </mxGraphModel>
  </diagram>
</mxfile>
